<svg width="50" height="16" viewBox="0 0 50 16" fill="none" xmlns="http://www.w3.org/2000/svg">
<g clip-path="url(#clip0_540_985)">
<path d="M11.2821 2.46655C14.4231 2.79989 17.5 2.33322 20.641 2.46655C22.4359 2.59989 24.2949 2.46655 26.0257 2.86655C26.6667 2.99989 27.3077 2.99989 27.9487 2.73322C27.4359 2.59989 26.859 2.53322 26.3462 2.46655C25.1923 2.39989 24.0385 2.33322 22.8846 2.19989C22.0513 2.19989 21.218 2.19989 20.3846 2.13322L20.4487 2.26655C20 2.19989 19.5513 2.19989 19.1026 2.13322C18.7821 2.13322 18.3975 2.06655 18.0769 2.06655C17.0513 1.93322 16.0257 1.93322 15 2.06655C14.359 2.13322 13.6539 2.13322 13.0128 2.13322C12.0513 2.13322 11.0898 2.06655 10.1282 2.06655C9.5513 1.99989 8.97438 1.99989 8.39746 1.99989C6.9231 1.99989 5.44874 1.93322 3.97438 2.19989C3.97438 2.39989 3.91028 2.79989 3.91028 2.99989C4.67951 2.59989 5.51284 2.19989 6.47438 2.33322C8.07694 2.26655 9.67951 2.46655 11.2821 2.46655Z" fill="#F1F1F1"/>
<path d="M35.1282 2.13333C34.4871 2 33.8461 1.8 33.2692 1.46667C33.0128 1.33333 32.6923 1.2 32.4359 1.06667L32.3718 0.999999C31.7948 0.733332 31.282 0.333332 30.7692 -8.15385e-07C30.5128 0.399999 30.3846 0.799999 30.3846 1.26667C30.2564 1.33333 30.1282 1.46667 30.0641 1.53333C30.0641 1.73333 30.1282 1.86667 30.1282 2.06667C29.8077 2.2 29.4871 2.33333 29.1666 2.46667C29.3589 2.93333 29.6154 3.4 30.1282 3.33333C30.1282 3.46667 30.1282 3.66667 30.1282 3.73333C30.4487 3.93333 30.7692 4.2 31.1538 4.4C30.7051 4.4 30.2564 4.4 29.8077 4.4C29.2307 4.4 28.7179 4.33333 28.141 4.26667C27.3077 3.33333 26.0256 4 24.9359 3.8L24.7436 3.53333C19.8718 3.4 14.9359 3.4 10.0641 3.2C8.65382 3 7.17947 3.06666 5.76921 3C5.19229 3 4.61536 3 3.97434 3.06666C3.14101 3.06666 2.30767 3.4 1.53844 3.8C1.21793 4.13333 1.15383 4.6 1.15383 5.06666C0.833314 4.86666 0.448701 4.6 0.064086 4.4C-1.65424e-05 4.8 -1.55808e-05 5.2 -1.55983e-05 5.6C0.320497 5.46666 0.641009 5.4 1.02562 5.26666C1.28203 5.53333 1.60254 5.8 1.85895 6.13333C2.05126 6 2.30767 5.93333 2.49998 5.8L2.56409 5.8C2.69229 6 2.8846 6.2 3.0128 6.33333C3.39742 6.33333 3.78203 6.33333 4.16665 6.33333C4.35896 6.33333 4.67947 6.4 4.87178 6.4C4.67947 6.66666 4.48716 7 4.29485 7.26666C4.61536 7.13333 4.99998 6.93333 5.38459 7L5.38459 7.06666C5.12818 7.2 4.87177 7.26666 4.61536 7.33333C4.80767 7.6 5.06408 7.93333 5.25639 8.2C4.99998 8.26666 4.80767 8.4 4.55126 8.46666C5.12819 9.13333 5.89741 9.6 6.60254 10.1333C9.67946 10.2 12.7564 9.6 15.8974 9.46666C18.2692 9.33333 20.7051 9.46666 23.141 9.66666C23.8461 9.73333 24.6154 9.86666 25.3205 10L25.5128 10.0667C26.2179 10.2667 26.923 10.3333 27.6282 10.4C28.7179 10.4667 29.7436 10.5333 30.8333 10.6C31.6025 10.6667 32.3718 10.6667 33.141 10.8C33.3333 10.8667 33.7179 10.9333 33.9102 11C32.8205 11.7333 31.6666 12.2667 30.5128 12.8667C30 13.3333 30.1923 14.2 30.7051 14.6C30.8974 13.8 31.3461 13 32.3077 13.3333C32.3077 13.7333 32.3718 14.0667 32.3718 14.4667C32.5641 14.5333 32.7564 14.6 32.9487 14.6667C33.0128 14.5333 33.2051 14.2667 33.3333 14.1333C33.3333 14.4 33.3333 14.7333 33.3974 15C33.0769 15.2 32.8205 15.3333 32.5641 15.5333C32.6923 15.5333 32.8846 15.6 33.0128 15.6C33.3974 15.4 33.8461 15.2667 34.2307 15.0667C34.423 15.2667 34.6153 15.4 34.7436 15.6C35 15.4667 35.1923 15.4 35.4487 15.2667C36.7307 15 38.0769 15.1333 39.2948 14.4667C39.7436 14.4 40.1923 14.3333 40.641 14.2C41.6666 13.6667 42.6923 13.3333 43.6538 12.8C43.7179 13 43.8461 13.2 43.9102 13.3333C44.6794 13 45.5128 12.7333 46.3461 12.6667C46.2179 12.4667 46.1538 12.2667 46.0256 12.0667C46.4743 11.8 46.9871 11.6 47.5 11.4C47.6923 11.2667 47.8846 11.1333 48.0128 11C48.3333 11 48.6538 11.0667 48.9743 11.0667C48.9102 10.8 48.9102 10.6 48.8461 10.3333C49.0384 9.93333 49.2307 9.53333 49.423 9.2C48.5897 8.53333 47.6923 8.13333 46.7307 7.66667C45.8974 7 45.0641 6.2 43.9743 6.06667C43.7179 5.73333 43.3333 5.53333 43.0128 5.4C41.7307 5.26667 40.641 4.4 39.4871 3.8C39.5512 3.66667 39.7436 3.46667 39.8077 3.33333C39.7436 3.26667 39.5512 3.2 39.4871 3.13333C39.0384 2.86667 38.5256 2.66667 38.0769 2.4C37.6923 2.2 37.2436 1.93333 36.8589 1.66667C36.4102 1.33333 35.8974 1.13333 35.3205 1.33333C35.1282 1.2 35 1.13333 34.8077 0.999999C34.9359 1.4 35 1.73333 35.1282 2.13333Z" fill="#F1F1F1"/>
</g>
<defs>
<clipPath id="clip0_540_985">
<rect width="16" height="50" fill="white" transform="translate(50) rotate(90)"/>
</clipPath>
</defs>
</svg>
