<svg width="50" height="16" viewBox="0 0 50 16" fill="none" xmlns="http://www.w3.org/2000/svg">
<g clip-path="url(#clip0_540_989)">
<path d="M38.7179 2.46655C35.5769 2.79989 32.5 2.33322 29.359 2.46655C27.5641 2.59989 25.7051 2.46655 23.9743 2.86655C23.3333 2.99989 22.6923 2.99989 22.0513 2.73322C22.5641 2.59989 23.141 2.53322 23.6538 2.46655C24.8077 2.39989 25.9615 2.33322 27.1154 2.19989C27.9487 2.19989 28.782 2.19989 29.6154 2.13322L29.5513 2.26655C30 2.19989 30.4487 2.19989 30.8974 2.13322C31.2179 2.13322 31.6025 2.06655 31.9231 2.06655C32.9487 1.93322 33.9743 1.93322 35 2.06655C35.641 2.13322 36.3461 2.13322 36.9872 2.13322C37.9487 2.13322 38.9102 2.06655 39.8718 2.06655C40.4487 1.99989 41.0256 1.99989 41.6025 1.99989C43.0769 1.99989 44.5513 1.93322 46.0256 2.19989C46.0256 2.39989 46.0897 2.79989 46.0897 2.99989C45.3205 2.59989 44.4872 2.19989 43.5256 2.33322C41.9231 2.26655 40.3205 2.46655 38.7179 2.46655Z" fill="#F1F1F1"/>
<path d="M14.8718 2.13333C15.5128 2 16.1538 1.8 16.7307 1.46667C16.9872 1.33333 17.3077 1.2 17.5641 1.06667L17.6282 0.999999C18.2051 0.733332 18.7179 0.333332 19.2307 -8.15385e-07C19.4872 0.399999 19.6154 0.799999 19.6154 1.26667C19.7436 1.33333 19.8718 1.46667 19.9359 1.53333C19.9359 1.73333 19.8718 1.86667 19.8718 2.06667C20.1923 2.2 20.5128 2.33333 20.8333 2.46667C20.641 2.93333 20.3846 3.4 19.8718 3.33333C19.8718 3.46667 19.8718 3.66667 19.8718 3.73333C19.5513 3.93333 19.2307 4.2 18.8461 4.4C19.2948 4.4 19.7436 4.4 20.1923 4.4C20.7692 4.4 21.282 4.33333 21.8589 4.26667C22.6923 3.33333 23.9743 4 25.0641 3.8L25.2564 3.53333C30.1282 3.4 35.0641 3.4 39.9359 3.2C41.3461 3 42.8205 3.06666 44.2307 3C44.8076 3 45.3846 3 46.0256 3.06666C46.8589 3.06666 47.6923 3.4 48.4615 3.8C48.782 4.13333 48.8461 4.6 48.8461 5.06666C49.1666 4.86666 49.5512 4.6 49.9359 4.4C50 4.8 50 5.2 50 5.6C49.6794 5.46666 49.3589 5.4 48.9743 5.26666C48.7179 5.53333 48.3974 5.8 48.141 6.13333C47.9487 6 47.6923 5.93333 47.5 5.8L47.4359 5.8C47.3076 6 47.1153 6.2 46.9871 6.33333C46.6025 6.33333 46.2179 6.33333 45.8333 6.33333C45.641 6.33333 45.3205 6.4 45.1282 6.4C45.3205 6.66666 45.5128 7 45.7051 7.26666C45.3846 7.13333 45 6.93333 44.6153 7L44.6153 7.06666C44.8718 7.2 45.1282 7.26666 45.3846 7.33333C45.1923 7.6 44.9359 7.93333 44.7435 8.2C45 8.26666 45.1923 8.4 45.4487 8.46666C44.8718 9.13333 44.1025 9.6 43.3974 10.1333C40.3205 10.2 37.2436 9.6 34.1025 9.46666C31.7307 9.33333 29.2948 9.46666 26.8589 9.66666C26.1538 9.73333 25.3846 9.86666 24.6795 10L24.4872 10.0667C23.782 10.2667 23.0769 10.3333 22.3718 10.4C21.282 10.4667 20.2564 10.5333 19.1666 10.6C18.3974 10.6667 17.6282 10.6667 16.8589 10.8C16.6666 10.8667 16.282 10.9333 16.0897 11C17.1795 11.7333 18.3333 12.2667 19.4872 12.8667C20 13.3333 19.8077 14.2 19.2948 14.6C19.1025 13.8 18.6538 13 17.6923 13.3333C17.6923 13.7333 17.6282 14.0667 17.6282 14.4667C17.4359 14.5333 17.2436 14.6 17.0513 14.6667C16.9872 14.5333 16.7948 14.2667 16.6666 14.1333C16.6666 14.4 16.6666 14.7333 16.6025 15C16.9231 15.2 17.1795 15.3333 17.4359 15.5333C17.3077 15.5333 17.1154 15.6 16.9872 15.6C16.6025 15.4 16.1538 15.2667 15.7692 15.0667C15.5769 15.2667 15.3846 15.4 15.2564 15.6C15 15.4667 14.8077 15.4 14.5513 15.2667C13.2692 15 11.9231 15.1333 10.7051 14.4667C10.2564 14.4 9.80767 14.3333 9.35895 14.2C8.33331 13.6667 7.30767 13.3333 6.34613 12.8C6.28203 13 6.15382 13.2 6.08972 13.3333C5.32049 13 4.48716 12.7333 3.65383 12.6667C3.78203 12.4667 3.84613 12.2667 3.97434 12.0667C3.52562 11.8 3.0128 11.6 2.49998 11.4C2.30767 11.2667 2.11537 11.1333 1.98716 11C1.66665 11 1.34614 11.0667 1.02562 11.0667C1.08973 10.8 1.08972 10.6 1.15383 10.3333C0.96152 9.93333 0.769212 9.53333 0.576905 9.2C1.41024 8.53333 2.30767 8.13333 3.26921 7.66667C4.10254 7 4.93588 6.2 6.02562 6.06667C6.28203 5.73333 6.66664 5.53333 6.98716 5.4C8.26921 5.26667 9.35895 4.4 10.5128 3.8C10.4487 3.66667 10.2564 3.46667 10.1923 3.33333C10.2564 3.26667 10.4487 3.2 10.5128 3.13333C10.9615 2.86667 11.4743 2.66667 11.9231 2.4C12.3077 2.2 12.7564 1.93333 13.141 1.66667C13.5897 1.33333 14.1025 1.13333 14.6795 1.33333C14.8718 1.2 15 1.13333 15.1923 0.999999C15.0641 1.4 15 1.73333 14.8718 2.13333Z" fill="#F1F1F1"/>
</g>
<defs>
<clipPath id="clip0_540_989">
<rect width="16" height="50" fill="white" transform="matrix(4.37114e-08 1 1 -4.37114e-08 0 0)"/>
</clipPath>
</defs>
</svg>
